<svg width="146" height="213" viewBox="0 0 146 213" fill="none" xmlns="http://www.w3.org/2000/svg">
<path d="M22 57.8059C22 59.598 20.562 61.0503 18.7874 61.0503C17.0135 61.0503 15.5749 59.598 15.5749 57.8059C15.5749 56.0144 17.0135 54.5615 18.7874 54.5615C20.562 54.5615 22 56.0144 22 57.8059Z" stroke="#7ED6DF" stroke-width="2.66667" stroke-miterlimit="10"/>
<path d="M16.6876 19.647C16.6876 19.647 16.7529 14.302 21.9795 14.302C21.9795 14.302 16.6876 14.2361 16.6876 8.95763C16.6876 8.95763 16.6224 14.302 11.3958 14.302C11.3958 14.302 16.6876 14.3685 16.6876 19.647Z" fill="#F9CA24"/>
<path d="M8.89106 6.74081C8.89106 6.74081 8.92886 3.60228 11.9989 3.60228C11.9989 3.60228 8.89106 3.56349 8.89106 0.463737C8.89106 0.463737 8.85266 3.60228 5.78325 3.60228C5.78325 3.60228 8.89106 3.64106 8.89106 6.74081Z" fill="#F9CA24"/>
<path d="M94.3126 184.218H34.0302C27.5955 184.218 22.3792 178.95 22.3792 172.452V51.556C22.3792 45.0585 27.5955 39.7905 34.0302 39.7905H94.3126C100.747 39.7905 105.964 45.0585 105.964 51.556V172.452C105.964 178.95 100.747 184.218 94.3126 184.218Z" fill="#30336B"/>
<path d="M93.2358 179.005H35.1738C30.8833 179.005 27.4064 175.493 27.4064 171.161V52.8478C27.4064 48.5147 30.8833 45.0034 35.1738 45.0034H93.2358C97.5263 45.0034 101.003 48.5147 101.003 52.8478V171.161C101.003 175.493 97.5263 179.005 93.2358 179.005Z" fill="#DFF9FB"/>
<path d="M80.5039 50.0316H49.9462C47.1416 50.0316 44.8681 47.7345 44.8681 44.9022V41.4323H85.583V44.9022C85.583 47.7345 83.3085 50.0316 80.5039 50.0316Z" fill="#30336B"/>
<path d="M95 91.0226H60V88.0226H95V91.0226Z" fill="#7ED6DF"/>
<path d="M95 98.0226H71V95.0226H95V98.0226Z" fill="#7ED6DF"/>
<path d="M49.6999 101.358H36.551C34.9789 101.358 33.7044 100.071 33.7044 98.4833V85.2039C33.7044 83.6162 34.9789 82.3291 36.551 82.3291H49.6999C51.272 82.3291 52.5465 83.6162 52.5465 85.2039V98.4833C52.5465 100.071 51.272 101.358 49.6999 101.358Z" fill="#7ED6DF"/>
<path d="M43.1254 85.4585L37.6125 94.3644C37.6125 94.3644 38.9752 96.7545 43.1254 96.7545C47.2767 96.7545 48.6383 94.3644 48.6383 94.3644L43.1254 85.4585Z" fill="white"/>
<path d="M36.9652 95.838C36.9652 95.838 38.9752 98.2281 43.1255 98.2281C47.2767 98.2281 49.2857 95.838 49.2857 95.838" stroke="white" stroke-width="1.292" stroke-miterlimit="10" stroke-linecap="round" stroke-linejoin="round"/>
<path d="M95 112.023H60V109.023H95V112.023Z" fill="#7ED6DF"/>
<path d="M95 119.023H71V116.023H95V119.023Z" fill="#7ED6DF"/>
<path d="M49.6999 123.81H36.551C34.9789 123.81 33.7044 122.523 33.7044 120.935V107.656C33.7044 106.068 34.9789 104.781 36.551 104.781H49.6999C51.272 104.781 52.5465 106.068 52.5465 107.656V120.935C52.5465 122.523 51.272 123.81 49.6999 123.81Z" fill="#7ED6DF"/>
<path d="M95 67.0226H60V63.0226H95V67.0226Z" fill="#7ED6DF"/>
<path d="M120 147.023H95V144.023H120V147.023Z" fill="#7ED6DF"/>
<path d="M49.6999 78.9062H36.551C34.9789 78.9062 33.7044 77.619 33.7044 76.0313V62.752C33.7044 61.1643 34.9789 59.8771 36.551 59.8771H49.6999C51.272 59.8771 52.5465 61.1643 52.5465 62.752V76.0313C52.5465 77.619 51.272 78.9062 49.6999 78.9062Z" fill="#7ED6DF"/>
<path d="M44.892 77.0226H40.1069L39 67.0226H46L44.892 77.0226Z" fill="white"/>
<path d="M47.1471 67.411H39.104L39.4577 65.9052H46.7934L47.1471 67.411Z" fill="white"/>
<path d="M43.8817 65.3688L43.1252 65.3597L44.3006 62.3017C44.3537 62.1641 44.4849 62.0741 44.6312 62.0741H46.2575V62.7885H44.8727L43.8817 65.3688Z" fill="white"/>
<path d="M130.446 211.433L105.177 185.912L112.644 178.372L137.913 203.891C139.975 205.974 139.975 209.349 137.913 211.433C135.852 213.515 132.508 213.515 130.446 211.433Z" fill="#30336B"/>
<path d="M102.018 188.648L99.2423 185.845L112.578 172.38L115.352 175.182C117.134 176.981 117.134 179.898 115.352 181.696L108.469 188.648C106.687 190.447 103.799 190.447 102.018 188.648Z" fill="#F9CA24"/>
<path d="M100.265 118.467C85.2653 103.318 60.8589 103.318 45.8601 118.467C30.8594 133.615 30.8594 158.263 45.8591 173.411C60.8599 188.56 85.2653 188.56 100.265 173.411C115.265 158.263 115.265 133.615 100.265 118.467ZM37.5036 181.85C17.8957 162.049 17.8957 129.83 37.5036 110.027C57.1104 90.2263 89.0137 90.2263 108.622 110.027C128.228 129.83 128.228 162.049 108.622 181.85C89.0137 201.653 57.1104 201.653 37.5036 181.85Z" fill="#22A6B3"/>
<path d="M100.265 118.467C85.2653 103.318 60.8589 103.318 45.8601 118.467C30.8594 133.615 30.8594 158.263 45.8591 173.411C60.8599 188.56 85.2653 188.56 100.265 173.411C115.265 158.263 115.265 133.615 100.265 118.467ZM43.6287 175.664C27.3995 159.274 27.3995 132.605 43.6297 116.214C59.8589 99.8243 86.2663 99.8243 102.496 116.214C118.726 132.605 118.726 159.274 102.497 175.664C86.2663 192.054 59.8589 192.054 43.6287 175.664Z" fill="#7ED6DF"/>
<path d="M114 146.022C114 168.114 95.8682 186.023 73.5006 186.023C51.133 186.023 33 168.114 33 146.022C33 123.931 51.133 106.023 73.5006 106.023C95.8682 106.023 114 123.931 114 146.022Z" fill="#DFF9FB"/>
<path d="M130.16 107.044L103.281 134.191L84.624 115.349L90.5437 109.369L103.281 122.233L124.24 101.066L130.16 107.044Z" fill="#F9CA24"/>
<path d="M61.7847 124.929L59.6402 126.805" stroke="#FFBE76" stroke-width="1.33333" stroke-miterlimit="10" stroke-linecap="round"/>
<path d="M73.4405 128.628L71.296 130.504" stroke="#FFBE76" stroke-width="1.33333" stroke-miterlimit="10" stroke-linecap="round"/>
<path d="M39.4158 134.276L38.8046 136.741" stroke="#FFBE76" stroke-width="1.33333" stroke-miterlimit="10" stroke-linecap="round"/>
<path d="M86.564 125.51L87.6965 127.449" stroke="#FFBE76" stroke-width="1.33333" stroke-miterlimit="10" stroke-linecap="round"/>
<path d="M62.9347 128.597L64.0668 130.536" stroke="#FFBE76" stroke-width="1.33333" stroke-miterlimit="10" stroke-linecap="round"/>
<path d="M82.8326 128.925L83.9651 130.864" stroke="#FFBE76" stroke-width="1.33333" stroke-miterlimit="10" stroke-linecap="round"/>
<path d="M144 152.037C144 154.983 141.636 157.37 138.72 157.37C135.804 157.37 133.439 154.983 133.439 152.037C133.439 149.093 135.804 146.704 138.72 146.704C141.636 146.704 144 149.093 144 152.037Z" stroke="#7ED6DF" stroke-width="2.66667" stroke-miterlimit="10"/>
<path d="M116.795 24.8281C116.795 27.7738 114.431 30.1609 111.515 30.1609C108.599 30.1609 106.234 27.7738 106.234 24.8281C106.234 21.8824 108.599 19.4953 111.515 19.4953C114.431 19.4953 116.795 21.8824 116.795 24.8281Z" stroke="#7ED6DF" stroke-width="2.66667" stroke-miterlimit="10"/>
<path d="M12.2923 120.966C12.2923 123.912 9.9286 126.299 7.01185 126.299C4.09611 126.299 1.73145 123.912 1.73145 120.966C1.73145 118.021 4.09611 115.633 7.01185 115.633C9.9286 115.633 12.2923 118.021 12.2923 120.966Z" stroke="#7ED6DF" stroke-width="2.66667" stroke-miterlimit="10"/>
<path d="M13.6808 196.668C13.6808 196.668 13.788 187.883 22.3791 187.883C22.3791 187.883 13.6808 187.776 13.6808 179.1C13.6808 179.1 13.5736 187.883 4.98151 187.883C4.98151 187.883 13.6808 187.992 13.6808 196.668Z" fill="#F9CA24"/>
<path d="M33.7045 28.5699C33.7045 28.5699 33.8117 19.7854 42.4028 19.7854C42.4028 19.7854 33.7045 19.6761 33.7045 11C33.7045 11 33.5973 19.7854 25.0052 19.7854C25.0052 19.7854 33.7045 19.8937 33.7045 28.5699Z" fill="#F9CA24"/>
<path d="M135.268 89.3163C135.268 89.3163 135.375 80.5309 143.966 80.5309C143.966 80.5309 135.268 80.4226 135.268 71.7464C135.268 71.7464 135.161 80.5309 126.57 80.5309C126.57 80.5309 135.268 80.6402 135.268 89.3163Z" fill="#F9CA24"/>
<path d="M27.4064 202.877C27.4064 202.877 27.4695 197.718 32.5146 197.718C32.5146 197.718 27.4064 197.655 27.4064 192.561C27.4064 192.561 27.3432 197.718 22.2982 197.718C22.2982 197.718 27.4064 197.782 27.4064 202.877Z" fill="#F9CA24"/>
<path d="M59.5018 29.9864C59.5018 29.9864 59.5649 24.8277 64.61 24.8277C64.61 24.8277 59.5018 24.7639 59.5018 19.6689C59.5018 19.6689 59.4396 24.8277 54.3935 24.8277C54.3935 24.8277 59.5018 24.8914 59.5018 29.9864Z" fill="#F9CA24"/>
<path d="M6.10822 70.6612C6.10822 70.6612 6.17034 65.5025 11.2164 65.5025C11.2164 65.5025 6.10822 65.4387 6.10822 60.3437C6.10822 60.3437 6.04509 65.5025 1 65.5025C1 65.5025 6.10822 65.5662 6.10822 70.6612Z" fill="#F9CA24"/>
<path d="M122.453 68.1027C122.453 68.1027 122.515 62.944 127.561 62.944C127.561 62.944 122.453 62.8802 122.453 57.7852C122.453 57.7852 122.39 62.944 117.345 62.944C117.345 62.944 122.453 63.0077 122.453 68.1027Z" fill="#F9CA24"/>
<path fill-rule="evenodd" clip-rule="evenodd" d="M100.776 132.877C100.613 133.351 99.9659 133.342 99.3036 133.318C99.3537 132.761 100.482 132.726 100.776 132.877Z" fill="#387C2B"/>
<path fill-rule="evenodd" clip-rule="evenodd" d="M96.2109 133.759C96.5187 133.697 96.6009 133.86 96.8 133.906C96.5195 134.509 95.9812 134.854 95.9164 135.671C95.7455 135.548 95.5215 135.477 95.18 135.524C95.6675 135.08 96.1446 134.624 96.2109 133.759Z" fill="#387C2B"/>
<path fill-rule="evenodd" clip-rule="evenodd" d="M93.56 135.377C92.3395 136.099 92.7158 138.648 93.1182 139.496C91.6484 139.106 91.2699 135.126 93.56 135.377Z" fill="#49A942"/>
<path fill-rule="evenodd" clip-rule="evenodd" d="M94.4436 135.671C93.6516 136.29 93.652 138.193 93.7073 139.201C92.9046 138.509 93.018 135.538 94.4436 135.671Z" fill="#387C2B"/>
<path fill-rule="evenodd" clip-rule="evenodd" d="M54.2382 139.937C54.5856 141.206 54.3444 142.759 54.2382 144.055C53.9858 147.137 54.4769 150.745 52.9127 152.44C52.8406 148.92 53.6506 143.774 54.2382 139.937Z" fill="#82FF79"/>
<path fill-rule="evenodd" clip-rule="evenodd" d="M63.2218 140.672C63.3944 140.696 63.346 140.94 63.3691 141.114C60.5177 144.934 57.8986 148.986 54.5327 152.292C56.1586 147.15 59.8316 144.052 63.2218 140.672Z" fill="#82FF79"/>
<path fill-rule="evenodd" clip-rule="evenodd" d="M107.698 141.408C107.638 142.385 106.974 143.27 107.404 143.908C108.827 143.81 108.422 141.886 109.907 141.849C109.984 143.446 108.514 143.497 108.287 144.791C109.053 144.771 109.294 144.227 110.202 144.35C110.429 145.431 109.253 145.146 108.729 145.379C107.762 145.809 107.048 146.719 106.078 146.997C105.849 147.618 106.896 146.965 106.667 147.586C106.244 147.833 105.575 147.998 105.047 147.733C104.259 146.363 104.314 144.15 102.396 143.908C103.138 142.529 104.635 144.056 105.342 144.497C107.133 144.472 105.953 141.479 107.698 141.408ZM105.784 146.409C105.975 145.571 106.566 145.131 107.551 145.085C107.303 143.983 105.23 145.425 105.784 146.409Z" fill="white"/>
<path fill-rule="evenodd" clip-rule="evenodd" d="M70.2909 142.437C71.0656 142.938 71.9407 143.339 72.5 144.055C72.2736 145.055 70.7642 144.773 69.8491 145.085C69.7872 143.886 70.6944 143.585 70.2909 142.437Z" fill="#EC83B5"/>
<path fill-rule="evenodd" clip-rule="evenodd" d="M97.2418 142.732C95.0664 143.354 92.4192 143.504 91.2036 145.085C91.7544 143.429 94.6483 142.837 97.2418 142.732Z" fill="black"/>
<path fill-rule="evenodd" clip-rule="evenodd" d="M76.9182 146.115C75.9088 145.848 75.307 145.174 74.4145 144.791C74.755 143.66 76.6777 144.109 77.36 143.32C77.8254 143.723 76.7915 145.079 76.9182 146.115Z" fill="#EC83B5"/>
<path fill-rule="evenodd" clip-rule="evenodd" d="M97.2418 144.497C96.9602 144.288 96.8194 143.938 96.3582 143.908C95.6659 143.952 95.4884 144.51 95.18 144.938C94.6587 143.76 97.6777 142.795 97.2418 144.497Z" fill="black"/>
<path fill-rule="evenodd" clip-rule="evenodd" d="M74.12 144.055C74.167 144.396 74.0963 144.62 73.9727 144.791C73.6199 144.702 73.3009 144.579 72.7945 144.644C72.8152 144.027 73.469 144.044 74.12 144.055Z" fill="#EC83B5"/>
<path fill-rule="evenodd" clip-rule="evenodd" d="M93.4127 145.379C93.0124 144.866 91.9926 144.775 91.7927 145.526C91.1904 144.738 93.6734 143.767 93.4127 145.379Z" fill="black"/>
<path fill-rule="evenodd" clip-rule="evenodd" d="M107.551 145.085C106.566 145.131 105.975 145.571 105.784 146.409C105.23 145.425 107.303 143.983 107.551 145.085Z" fill="black"/>
<path fill-rule="evenodd" clip-rule="evenodd" d="M98.1255 147.733C97.2409 147.985 96.4583 148.051 95.4746 147.88C95.3092 146.712 95.3657 145.717 96.0636 145.085C97.5452 145.173 97.8736 146.416 98.1255 147.733ZM95.7691 147.586C96.6739 147.852 96.0797 146.621 97.0946 146.997C96.8166 146.412 96.3795 146.557 96.6527 145.673C96.3742 145.706 96.3279 145.508 96.0636 145.526C95.7485 145.996 95.7396 146.771 95.7691 147.586Z" fill="black"/>
<path fill-rule="evenodd" clip-rule="evenodd" d="M79.7164 155.381C78.9989 155.253 78.7395 155.582 78.2436 155.675C78.6078 156.033 78.3805 156.662 78.2436 157.293C78.9092 157.505 79.3885 157.197 80.0109 157.588C80.1944 160.695 79.5025 163.456 77.8018 165.236C76.1534 166.962 71.7379 168.772 69.5546 166.119C70.1435 166.168 70.3721 165.857 71.0273 165.972V164.795C70.4556 164.255 68.5141 164.415 68.0818 164.942C65.8035 163.005 68.0234 159.745 67.64 156.999C67.4502 155.64 66.2589 154.195 66.1673 152.587C66.0693 150.869 66.4004 149.513 67.64 148.321C68.2899 148.26 68.7783 148.361 69.1127 148.615C69.1197 147.873 68.606 147.65 67.7873 147.733C72.9507 142.197 80.3261 148.406 79.7164 155.381ZM71.1746 148.468C71.7987 147.62 73.3901 147.548 73.9727 148.468C74.0847 146.781 70.7725 147.433 71.1746 148.468ZM71.9109 149.645C71.6324 149.678 71.5859 149.479 71.3218 149.498C71.5787 150.163 71.4212 150.112 71.0273 150.233C71.6943 150.597 71.5558 151.765 71.7636 152.587C72.3888 152.245 72.8925 152.67 73.6782 152.587C74.4689 151.283 73.5032 149.646 72.9418 148.762C72.9429 149.613 72.3502 148.345 72.2055 148.909C72.566 148.926 72.2367 149.396 72.0582 149.351C72.0418 149.234 71.5713 148.905 71.6164 149.204C71.824 149.242 71.7843 149.526 71.9109 149.645ZM67.3455 149.351C67.2743 149.814 67.7974 149.684 67.64 150.233C67.3779 150.321 67.0284 149.802 66.9036 150.233C67.3139 150.393 67.1459 151.045 66.7564 150.674C67.1165 151.54 67.6795 152.204 67.64 153.469C68.4239 153.32 69.1366 153.101 69.8491 152.881C70.0581 151.25 69.1547 150.73 69.1127 149.351C68.6287 149.743 68.617 149.431 68.0818 149.204C68.21 149.993 67.5929 149.442 67.3455 149.351ZM77.2127 151.263C77.3307 150.679 77.7255 150.146 77.36 149.498C76.8326 149.114 76.2154 149.734 75.74 149.351C76.2702 149.949 76.9359 150.411 77.2127 151.263ZM69.5546 154.793C69.6015 155.29 70.7609 155.724 71.0273 155.087C70.6967 154.878 70.0569 154.978 69.9964 154.499C70.2236 154.464 70.7021 153.952 70.2909 153.763C70.1525 154.213 69.5737 154.224 69.5546 154.793ZM75.74 155.823C75.3466 154.985 76.2477 154.175 76.7709 153.763C75.9033 154.025 74.9443 154.194 74.8564 155.234C75.0449 155.447 75.5706 156.077 75.74 155.823ZM70.2909 159.206C72.2452 159.392 72.4464 157.045 72.6473 155.97C72.2463 156.583 70.9693 155.375 70.5855 156.411C70.4849 155.972 69.9992 155.918 69.4073 155.97C69.8314 156.918 69.4529 158.67 70.2909 159.206ZM76.6236 162C76.7051 161.101 77.6822 161.096 77.5073 159.941C77.0979 159.756 76.2708 159.222 76.0346 159.353C76.8637 159.819 76.3954 161.249 76.6236 162ZM69.9964 163.177C70.5033 162.311 71.4832 161.917 72.6473 161.706C72.0037 161.565 71.61 161.173 70.7327 161.265C70.4662 161.787 69.8506 162.733 69.9964 163.177ZM74.2673 166.119C74.4733 165.589 75.4415 165.821 75.74 165.383C75.9058 164.433 75.1939 164.36 74.8564 163.913C75.1701 165.063 74.1318 165.636 74.2673 166.119Z" fill="#FCFF57"/>
<path fill-rule="evenodd" clip-rule="evenodd" d="M96.0636 145.526C96.3278 145.508 96.3742 145.706 96.6527 145.673C96.3795 146.557 96.8166 146.412 97.0945 146.997C96.0797 146.621 96.6739 147.852 95.7691 147.586C95.7396 146.771 95.7485 145.996 96.0636 145.526Z" fill="white"/>
<path fill-rule="evenodd" clip-rule="evenodd" d="M93.56 149.351C92.8233 149.257 92.4429 148.866 91.94 148.909C91.6178 147.538 91.8089 145.96 92.8236 145.968C93.9606 145.976 94.4937 148.355 93.56 149.351ZM92.0873 148.468C92.4535 148.445 92.5432 148.699 92.8236 148.762C92.5834 147.983 93.2688 148.128 93.56 147.88C93.0597 147.626 92.9079 147.35 93.1182 146.703C92.0961 146.076 91.9754 147.486 92.0873 148.468Z" fill="black"/>
<path fill-rule="evenodd" clip-rule="evenodd" d="M93.1182 146.703C92.9079 147.35 93.0597 147.626 93.56 147.88C93.2688 148.128 92.5834 147.983 92.8236 148.762C92.5432 148.699 92.4535 148.445 92.0873 148.468C91.9754 147.486 92.0961 146.076 93.1182 146.703Z" fill="white"/>
<path fill-rule="evenodd" clip-rule="evenodd" d="M73.9727 148.468C73.3901 147.548 71.7987 147.62 71.1745 148.468C70.7725 147.433 74.0847 146.781 73.9727 148.468Z" fill="black"/>
<path fill-rule="evenodd" clip-rule="evenodd" d="M38.7745 151.263C39.4119 151.308 39.7813 149.819 39.9527 148.909C41.6252 149.465 39.6091 151.479 40.1 152.734C41.433 152.675 41.1527 150.278 42.7509 150.969C41.3359 151.713 42.3007 154.834 40.6891 155.381C40.6567 155.855 40.9496 156.004 40.8364 156.558C40.3838 156.981 38.3083 157.484 38.3327 156.264C38.6784 155.916 39.0563 156.288 39.5109 156.264C37.859 154.678 36.3092 152.989 36.4182 149.645C37.6607 149.875 37.0491 151.956 37.7436 152.734C38.9044 152.633 39.9767 153.419 39.9527 154.94C40.7043 153.114 38.9912 152.012 37.7436 152.145C38.051 150.979 37.8254 149.653 37.5964 148.321C38.9195 148.275 39.0081 150.242 38.7745 151.263Z" fill="white"/>
<path fill-rule="evenodd" clip-rule="evenodd" d="M105.931 148.321C105.468 150.898 103.581 152.837 100.924 152.734C100.785 151.823 101.836 152.054 102.249 151.851C103.54 151.217 104.618 150.28 105.195 148.762C105.153 148.525 105.334 148.509 105.342 148.321H105.931Z" fill="#82FF79"/>
<path fill-rule="evenodd" clip-rule="evenodd" d="M68.0818 149.204C68.617 149.431 68.6286 149.743 69.1127 149.351C69.1547 150.73 70.0581 151.25 69.8491 152.881C69.1366 153.101 68.4239 153.32 67.64 153.469C67.6795 152.204 67.1164 151.541 66.7564 150.674C67.1459 151.045 67.3139 150.393 66.9036 150.233C67.0284 149.802 67.3779 150.321 67.64 150.233C67.7974 149.684 67.2743 149.814 67.3455 149.351C67.5929 149.442 68.2099 149.993 68.0818 149.204ZM68.3764 153.028C68.7498 152.715 68.6746 151.953 69.4073 151.998C68.5014 151.866 68.4902 151.406 68.8182 150.674C67.7696 150.697 67.3999 152.612 68.3764 153.028Z" fill="black"/>
<path fill-rule="evenodd" clip-rule="evenodd" d="M96.2109 149.351C96.6241 151.108 94.1701 151.882 93.4127 150.674C93.4731 149.362 94.7868 149.301 96.2109 149.351ZM93.8545 150.527C94.5994 150.723 95.5255 150.508 95.7691 149.792C95.0474 149.811 94.18 149.39 93.8545 150.527Z" fill="black"/>
<path fill-rule="evenodd" clip-rule="evenodd" d="M95.7691 149.792C95.5255 150.508 94.5994 150.723 93.8545 150.527C94.18 149.39 95.0475 149.811 95.7691 149.792Z" fill="#BC8D0A"/>
<path fill-rule="evenodd" clip-rule="evenodd" d="M72.7945 150.233C73.4825 150.243 72.6221 150.569 72.6473 150.822C72.7629 151.147 73.5589 150.794 73.3836 151.41C72.7515 151.269 72.5062 151.514 72.6473 152.145H72.0582C71.933 151.138 72.1657 150.488 72.7945 150.233Z" fill="white"/>
<path fill-rule="evenodd" clip-rule="evenodd" d="M68.8182 150.674C68.4902 151.406 68.5014 151.866 69.4073 151.998C68.6746 151.953 68.7499 152.715 68.3764 153.028C67.4 152.612 67.7696 150.697 68.8182 150.674Z" fill="white"/>
<path fill-rule="evenodd" clip-rule="evenodd" d="M51.7345 151.998C52.1665 152.253 52.4185 152.688 52.4709 153.322C53.4721 153.489 53.3498 152.533 54.0909 152.439V153.175C54.6915 153.137 54.8183 152.627 55.5636 152.734C54.0535 154.085 53.5492 157.914 54.8273 159.941C54.6067 160.162 54.3843 160.381 54.0909 160.529C54.3601 160.878 54.4753 161.38 54.2382 161.853C54.981 161.958 55.0616 161.401 55.8582 161.559C55.9407 161.771 56.0879 161.918 56.3 162C56.1196 163.834 54.8937 165.865 56.4473 167.296C56.0926 167.579 55.9585 168.082 55.5636 168.325C55.1019 168.394 55.1485 167.955 54.9745 167.737L53.2073 168.619C53.0758 169.181 53.4478 169.558 53.2073 169.796C52.4705 170.095 51.3356 169.904 50.5564 169.796C50.4496 169.346 50.8104 169.364 50.7036 168.914C48.9764 170.412 44.9407 169.915 44.6655 167.443C44.2289 167.656 44.8594 168.016 44.6655 168.472C39.3907 167.555 42.1459 159.126 45.8436 158.617C46.0763 159.781 44.9219 159.56 44.8127 160.382C44.8498 161.832 47.3337 163.084 48.3473 161.706C48.4589 160.81 47.8991 160.585 47.0218 160.677C46.9682 161.269 47.8738 160.904 47.7582 161.559C46.6139 161.939 45.3009 161.288 45.2545 160.088C45.9775 159.576 47.148 159.954 47.6109 160.529C47.7245 159.485 46.285 159.991 46.1382 159.206C47.1052 159.024 47.2874 159.627 47.7582 159.941C48.5901 159.401 48.9072 158.061 48.6418 156.852C50.6226 156.265 51.9775 154.321 51.7345 151.998ZM49.2309 158.911C49.6143 159.852 50.2064 160.585 51.2927 160.824C53.9304 158.45 50.5328 155.717 49.2309 158.911ZM49.0836 163.177C46.8525 163.662 45.0061 162.563 43.7818 161.559C44.4032 162.311 44.8199 163.268 44.8127 164.648C46.3344 166.079 48.4231 164.534 49.5255 163.765C49.9016 164.115 51.4413 164.324 51.5873 163.618C50.6035 163.873 49.4718 162.763 49.82 161.706C49.4091 162.031 49.281 162.639 49.0836 163.177ZM47.9055 165.236C46.612 165.918 44.9635 166.213 44.0764 164.942C44.0466 167.132 47.3915 166.509 47.9055 165.236Z" fill="#FC3E3E"/>
<path fill-rule="evenodd" clip-rule="evenodd" d="M96.9473 153.175C97.7501 153.49 96.4766 154.762 95.9164 154.205C95.8977 153.941 96.0968 153.894 96.0636 153.616C96.663 153.991 96.7499 153.818 96.9473 153.175Z" fill="#EE3224"/>
<path fill-rule="evenodd" clip-rule="evenodd" d="M99.8927 153.763C99.454 153.704 97.9928 153.906 98.2727 153.616C98.5157 153.481 99.8942 153.196 99.8927 153.763Z" fill="black"/>
<path fill-rule="evenodd" clip-rule="evenodd" d="M70.2909 153.763C70.7021 153.952 70.2236 154.464 69.9964 154.499C70.0569 154.978 70.6967 154.878 71.0273 155.087C70.7609 155.724 69.6015 155.29 69.5546 154.793C69.5737 154.224 70.1525 154.213 70.2909 153.763Z" fill="black"/>
<path fill-rule="evenodd" clip-rule="evenodd" d="M91.94 154.057C92.0712 154.123 92.2035 154.187 92.2345 154.352C90.639 156.135 91.1151 157.21 92.6764 158.764C89.4923 158.809 89.8296 154.949 91.94 154.057Z" fill="#82FF79"/>
<path fill-rule="evenodd" clip-rule="evenodd" d="M95.18 154.205C94.8513 154.612 94.359 154.855 93.7073 154.94C94.1182 154.615 94.4775 154.238 95.18 154.205Z" fill="black"/>
<path fill-rule="evenodd" clip-rule="evenodd" d="M97.5364 154.352C98.2038 155.099 96.8202 156.127 95.4745 155.823C95.5457 155.359 95.0226 155.49 95.18 154.94C95.9605 155.727 97.1225 155.147 97.5364 154.352Z" fill="black"/>
<path fill-rule="evenodd" clip-rule="evenodd" d="M69.4073 155.97C69.9992 155.918 70.4849 155.972 70.5855 156.411C70.9692 155.375 72.2462 156.583 72.6473 155.97C72.4464 157.045 72.2452 159.392 70.2909 159.206C69.4529 158.67 69.8314 156.918 69.4073 155.97ZM69.9964 158.029C70.9162 158.473 71.6312 157.794 71.7636 156.999C71.2084 157.115 70.5162 157.257 69.9964 156.999V158.029Z" fill="#EE3224"/>
<path fill-rule="evenodd" clip-rule="evenodd" d="M82.9564 158.47C81.8723 157.527 80.6169 156.095 78.6855 156.852C78.666 156.49 78.6632 156.144 78.8327 155.97C80.9608 156.051 82.6383 156.582 82.9564 158.47Z" fill="#82FF79"/>
<path fill-rule="evenodd" clip-rule="evenodd" d="M69.9964 156.999C70.5162 157.257 71.2084 157.115 71.7636 156.999C71.6312 157.794 70.9162 158.473 69.9964 158.029V156.999Z" fill="white"/>
<path fill-rule="evenodd" clip-rule="evenodd" d="M48.0527 157.293C47.7337 157.83 47.2445 157.947 47.7582 158.617C47.3731 158.576 47.1248 158.671 47.1691 159.059C46.995 158.889 46.6485 158.892 46.2855 158.911C46.1804 157.749 47.0616 156.879 48.0527 157.293Z" fill="white"/>
<path fill-rule="evenodd" clip-rule="evenodd" d="M51.2927 160.824C50.2064 160.585 49.6143 159.852 49.2309 158.911C50.5328 155.717 53.9304 158.45 51.2927 160.824ZM49.5255 159.206C49.796 159.426 49.8926 159.82 50.2618 159.941C50.159 159.397 50.4948 159.291 50.9982 159.353C50.596 158.512 51.291 158.657 51.44 158.029C50.6241 157.245 49.8657 158.586 49.5255 159.206Z" fill="black"/>
<path fill-rule="evenodd" clip-rule="evenodd" d="M40.3945 157.588C40.0468 158.841 40.8037 160.202 41.8673 160.529C41.0244 162.065 39.0847 159.496 39.2164 157.735C39.4305 157.507 39.9703 157.605 40.3945 157.588Z" fill="#82FF79"/>
<path fill-rule="evenodd" clip-rule="evenodd" d="M51.44 158.029C51.291 158.657 50.596 158.512 50.9982 159.353C50.4948 159.291 50.159 159.397 50.2618 159.941C49.8926 159.82 49.796 159.426 49.5255 159.206C49.8657 158.586 50.6241 157.245 51.44 158.029Z" fill="white"/>
<path fill-rule="evenodd" clip-rule="evenodd" d="M83.84 158.764C83.702 159.46 82.7309 159.324 82.22 159.647C82.2156 158.863 83.1655 158.397 83.84 158.764Z" fill="white"/>
<path fill-rule="evenodd" clip-rule="evenodd" d="M93.1182 159.206C93.1983 159.401 93.7905 160.217 93.1182 160.235C94.9034 162.164 90.2642 164.374 89.4364 162C89.9187 161.383 90.6986 161.934 91.0564 162.295C91.4622 161.425 91.6939 160.382 92.8236 160.235C92.3909 159.733 91.5194 160.596 91.2036 160.235C90.9415 158.992 92.1432 159.212 93.1182 159.206Z" fill="white"/>
<path fill-rule="evenodd" clip-rule="evenodd" d="M84.1345 159.5C84.1998 160.053 83.901 160.557 84.4291 161.118C83.7739 161.645 82.7898 161.342 82.5145 160.677C82.6321 160.402 82.7606 160.138 82.8091 159.794C83.3113 159.757 83.516 159.422 84.1345 159.5Z" fill="white"/>
<path fill-rule="evenodd" clip-rule="evenodd" d="M58.2145 160.529V162H57.1836C57.4328 160.708 55.3707 161.063 54.8273 161.412C54.4958 161.351 54.8494 160.606 54.3855 160.677C55.1498 160.065 57.3692 159.756 58.2145 160.529Z" fill="#82FF79"/>
<path fill-rule="evenodd" clip-rule="evenodd" d="M90.9091 160.824C90.8324 161.041 90.6913 161.194 90.6145 161.412C90.1168 161.34 90.3288 160.643 90.9091 160.824Z" fill="white"/>
<path fill-rule="evenodd" clip-rule="evenodd" d="M71.6164 161.559C71.3946 161.768 70.981 162.103 70.7327 161.853C70.8137 161.505 71.3027 161.243 71.6164 161.559Z" fill="white"/>
<path fill-rule="evenodd" clip-rule="evenodd" d="M85.0182 161.412C84.8965 161.828 85.2257 161.793 85.1655 162.147C83.7173 162.025 82.7119 162.345 81.4836 162.442C81.7163 160.397 83.8459 162.675 85.0182 161.412Z" fill="#EC83B5"/>
<path fill-rule="evenodd" clip-rule="evenodd" d="M100.924 162.147C101.778 164.04 102.54 166.024 103.869 167.443C105.675 167.712 105.885 165.652 107.109 165.825C106.576 166.987 105.096 168.537 104.016 168.472C102.633 168.39 100.831 164.713 100.924 162.147Z" fill="#82FF79"/>
<path fill-rule="evenodd" clip-rule="evenodd" d="M58.6564 162.442C58.1017 163.466 59.2266 163.455 58.9509 164.942C59.4173 164.869 59.5528 164.465 59.6873 164.06C60.2494 163.988 60.6273 164.101 60.8655 164.354C61.0791 167.185 55.1118 167.175 56.3 164.354C56.5032 163.871 57.1816 163.713 57.7727 163.324C57.4779 162.849 56.8536 163.726 56.5945 163.324C56.6225 162.436 57.8685 162.094 58.6564 162.442Z" fill="white"/>
<path fill-rule="evenodd" clip-rule="evenodd" d="M65.8727 162.295C66.2695 162.83 66.2969 163.734 66.4618 164.501C65.7402 165.02 64.2155 165.092 64.2527 163.765C64.4834 164.123 64.8389 164.357 65.4309 164.354C65.3903 163.757 64.9626 163.547 65.1364 162.736C65.3102 162.518 65.6931 162.506 65.8727 162.295Z" fill="#82FF79"/>
<path fill-rule="evenodd" clip-rule="evenodd" d="M85.1655 162.589C85.4671 163.169 85.4503 163.552 85.0182 163.913C84.4484 164.04 84.4942 163.553 84.1345 163.471C83.9351 163.958 83.6067 164.317 82.9564 164.354C82.7919 164.126 82.4776 164.047 82.5145 163.618C82.3059 164.18 81.6235 164.598 80.8945 164.207C80.9682 162.32 83.3363 162.723 85.1655 162.589Z" fill="#F9C6DC"/>
<path fill-rule="evenodd" clip-rule="evenodd" d="M99.7455 162.589C99.4916 163.38 98.158 162.674 97.3891 163.177C97.8692 162.677 98.6718 162.498 99.7455 162.589Z" fill="black"/>
<path fill-rule="evenodd" clip-rule="evenodd" d="M109.613 163.03C110.942 162.44 111.203 164.185 111.38 165.236C110.32 164.972 110.65 163.318 109.613 163.03Z" fill="#22A6B3"/>
<path fill-rule="evenodd" clip-rule="evenodd" d="M45.1073 163.03C45.9681 163.445 46.8495 163.84 48.2 163.765C47.5815 164.672 44.9481 164.592 45.1073 163.03Z" fill="white"/>
<path fill-rule="evenodd" clip-rule="evenodd" d="M95.6218 163.03C95.9614 162.985 95.7854 163.455 96.0636 163.471C94.8438 164.443 93.5497 165.363 92.6764 166.854C92.222 167.63 92.216 168.922 91.2036 169.355C91.7235 166.295 93.6984 164.688 95.6218 163.03Z" fill="#82FF79"/>
<path fill-rule="evenodd" clip-rule="evenodd" d="M109.171 166.119C108.497 166.577 108.863 164.422 108.14 164.06C109.294 161.464 111.525 165.981 111.822 167.737C112.184 169.882 108.865 170.788 108.435 168.619C108.25 167.691 108.953 166.985 109.171 166.119Z" fill="#22A6B3"/>
<path fill-rule="evenodd" clip-rule="evenodd" d="M85.3127 164.207C85.1329 165.838 82.2668 166.13 81.3364 164.942C82.6913 164.37 83.6633 164.41 85.3127 164.207Z" fill="#EC83B5"/>
<path fill-rule="evenodd" clip-rule="evenodd" d="M107.109 164.501C107.919 164.474 108.663 166.47 107.551 166.56C107.917 165.887 107.457 165.329 106.815 165.236C106.965 165.044 106.959 164.694 107.109 164.501Z" fill="#22A6B3"/>
<path fill-rule="evenodd" clip-rule="evenodd" d="M44.0764 164.942C44.9635 166.213 46.612 165.918 47.9055 165.236C47.3915 166.509 44.0466 167.132 44.0764 164.942Z" fill="black"/>
<path fill-rule="evenodd" clip-rule="evenodd" d="M70.7327 165.236C70.8866 166.077 69.6378 165.516 69.1127 165.678C67.3858 166.033 66.8562 168.132 66.7564 169.649C65.5679 167.029 68.2041 164.143 70.7327 165.236Z" fill="#82FF79"/>
<path fill-rule="evenodd" clip-rule="evenodd" d="M81.3364 168.325C81.1873 168.814 80.2645 168.53 80.0109 168.914C80.6349 170.173 81.2414 172.298 79.5691 172.885C79.5277 172.111 79.7247 172.013 79.5691 171.414C79.367 170.93 78.7899 170.82 78.2436 170.679C78.2981 169.742 77.9598 169.197 77.0654 169.208C77.3453 167.363 79.8563 167.946 81.3364 168.325Z" fill="#F92424"/>
<path fill-rule="evenodd" clip-rule="evenodd" d="M42.4564 168.767C41.5922 169.031 41.2954 169.862 40.9836 170.679C40.5203 170.749 40.4079 170.469 40.1 170.384C40.1368 169.159 41.848 167.162 42.4564 168.767Z" fill="#82FF79"/>
<path fill-rule="evenodd" clip-rule="evenodd" d="M54.68 168.178C54.898 169.017 55.6544 170.012 55.7109 170.532C54.5053 170.971 53.9908 169.659 53.5018 168.914C53.7684 168.543 54.4134 168.549 54.68 168.178Z" fill="#82FF79"/>
<path fill-rule="evenodd" clip-rule="evenodd" d="M62.4855 168.472C63.8642 169.455 65.8838 170.591 67.64 169.943C68.4931 171.333 66.898 172.17 66.1673 172.885C65.5751 172.971 66.2405 172.45 66.02 172.002C63.777 172.188 62.026 171.383 62.4855 168.472Z" fill="#F92424"/>
<path fill-rule="evenodd" clip-rule="evenodd" d="M89.4364 170.826C90.2022 170.953 90.0502 170.164 90.32 169.796C91.2076 169.89 92.3188 169.761 92.0873 170.973C91.3537 170.921 91.0092 170.481 90.1727 170.532C90.4979 170.991 91.3316 170.943 91.7927 171.267C91.9912 171.711 91.9912 172.441 91.7927 172.885H87.3745C86.0084 171.94 85.614 167.788 88.7 168.472C89.2405 168.962 89.5733 169.659 89.4364 170.826Z" fill="#22A6B3"/>
<path fill-rule="evenodd" clip-rule="evenodd" d="M38.7746 171.855C39.3628 171.903 39.0853 171.087 39.3636 170.826C40.1538 170.968 41.299 170.756 41.2782 171.708C40.7492 172.093 39.9666 171.714 39.5109 171.561C39.5589 172.347 40.656 172.085 41.1309 172.444C40.6751 173.705 37.971 172.72 36.5655 173.032C36.5416 172.86 36.297 172.908 36.1236 172.885C35.5128 171.964 34.6294 171.274 34.9455 169.943C35.4811 167.688 39.7682 168.69 38.7746 171.855Z" fill="#22A6B3"/>
<path fill-rule="evenodd" clip-rule="evenodd" d="M57.1836 170.384C57.3101 171.381 56.0666 171.669 55.4164 171.414C55.9156 171.042 56.3854 169.981 57.1836 170.384Z" fill="#22A6B3"/>
<path fill-rule="evenodd" clip-rule="evenodd" d="M57.7727 170.679C58.4773 170.846 58.4891 172.364 58.2145 173.032H52.7655C52.6071 171.058 55.6392 171.601 56.1527 172.591C56.4292 172.31 56.0654 172.325 56.1527 171.855C57.0143 171.785 57.3707 171.208 57.7727 170.679Z" fill="#22A6B3"/>
<path fill-rule="evenodd" clip-rule="evenodd" d="M99.7455 128.023H100.335V128.17C101.335 128.201 101.78 128.785 101.807 129.788C103.139 129.794 103.584 130.876 103.28 131.847C103.11 132.389 102.284 132.201 101.955 132.729C101.498 133.46 102.314 133.887 101.66 134.2C100.294 134.792 99.035 134.328 97.8309 135.083C96.9536 135.633 96.6312 137.086 94.8855 136.113C94.2585 136.498 93.8778 137.642 94.2964 138.613C100.611 138.782 100.752 145.89 101.071 151.557C102.895 151.106 104.682 149.963 104.753 148.174C104.806 146.815 103.417 146.247 103.427 144.791C102.815 144.618 102.221 144.426 102.102 143.761C102.83 142.024 104.843 143.105 105.636 144.055C106.563 143.264 105.999 140.985 107.551 140.819C108.69 141.267 107.852 142.753 107.551 143.467C108.799 143.145 108.388 141.166 110.202 141.408C111.371 142.56 108.966 143.627 109.465 144.055C110.156 144.052 110.969 143.927 110.938 144.644C110.461 146.032 109.055 145.471 108.14 146.115C107.151 146.81 106.961 148.244 106.373 149.645C105.473 151.789 103.755 152.888 101.218 153.469C101.55 155.785 101.258 158.556 101.071 160.824C102.008 162.928 103.003 164.973 104.164 166.854C106.32 166.401 107.512 161.244 110.644 162.295C111.699 162.649 112.067 164.775 111.675 165.972C112.059 166.912 112.565 167.731 112.411 169.208C111.217 171.564 106.62 170.835 107.993 167.149C105.782 167.145 105.591 169.803 103.427 169.208C102.133 168.852 102.098 166.77 101.071 165.825C100.915 166.993 100.955 168.357 99.8927 168.619C97.9003 168.011 97.4311 165.881 96.3582 164.354C94.7268 165.417 92.4155 167.086 92.3818 169.355C92.3736 169.906 92.7406 170.217 92.8236 170.679C92.878 170.981 92.531 170.998 92.5291 171.267C92.5272 171.524 93.1859 172.291 92.8236 172.885H113V174.356H32V173.032C32.6477 172.91 33.5266 172.871 34.9455 172.885C32.0219 169.704 38.0977 165.35 39.3636 170.237C39.6386 168.943 40.5184 168.253 41.2782 167.443C40.4621 165.978 40.3408 163.443 41.1309 161.853C39.875 161.048 38.6021 160.26 38.7745 158.029C38.5782 157.539 38.0324 157.397 37.8909 156.852C37.9971 154.341 34.9132 153.101 36.1236 149.498C36.5861 149.109 37.145 149.567 37.4491 149.792C37.3099 149.105 36.9428 148.255 37.4491 147.733C38.7408 147.57 38.7981 148.641 39.3636 149.204C39.6423 148.991 39.3972 148.257 39.9527 148.321C41.6172 148.589 41.016 150.603 40.5418 151.704C40.7481 151.172 42.5522 149.272 43.34 150.969C43.186 151.648 42.5637 151.86 42.3091 152.44C42.8998 154.277 41.6079 154.71 41.2782 155.675C41.0752 156.27 41.4246 157.135 40.6891 157.588C40.6624 158.84 41.3798 159.349 42.1618 159.794C43.5706 159.338 44.1204 158.024 45.8436 157.882C46.086 157.486 46.3055 157.068 46.58 156.705C49.9671 156.656 50.988 154.243 51.2927 151.116H52.0291C52.4054 146.196 53.4572 141.952 54.3855 137.583C55.2255 138.068 54.9031 139.714 54.9745 140.966C55.2201 140.77 55.2033 140.312 55.4164 140.084C56.0778 140.649 55.8007 142.151 55.8582 143.32C57.2405 142.15 58.245 138.546 59.9818 137.731C59.8756 140.762 58.5112 142.538 57.92 145.085C59.6434 143.423 61.4875 140.607 64.4 139.643C63.7152 142.293 61.8719 143.786 60.7182 145.968C61.3411 145.707 62.1373 145.62 62.9273 145.526C60.8185 147.931 57.8325 149.459 55.8582 151.998C55.8192 152.478 56.4296 152.31 56.4473 152.734C55.3891 154.253 54.4083 157.163 55.2691 159.647C56.5278 159.343 58.3645 159.411 58.9509 160.235C58.7279 161.759 59.8496 162.228 59.2455 163.471C63.5041 163.587 60.6743 167.816 57.6255 167.296C57.0093 167.955 56.8069 169.028 56.1527 169.649C58.0573 169.781 59.835 170.744 59.2455 172.885C60.8915 172.959 64.3218 173.543 65.2836 172.444C62.5831 173.024 60.9634 170.323 62.0436 167.59C63.0532 168.116 64.1803 169.261 65.4309 169.061C65.7875 167.554 66.3019 166.204 67.1982 165.236C64.2729 166.283 62.5402 163.891 64.8418 162C61.9827 160.455 63.8006 156.359 66.1673 155.528C64.0358 151.727 65.868 146.635 69.26 145.379C69.4594 144.107 69.836 143.013 70.1436 141.849C71.1442 142.321 72.1697 142.767 72.7945 143.614C73.4016 142.782 74.0287 144.09 74.4145 144.055C74.6886 144.031 75.1823 143.315 75.5927 143.173C76.4468 142.878 77.1756 143.133 77.9491 143.026C77.883 143.858 77.6956 145.667 77.2127 146.556C78.8321 148.959 80.7402 151.074 80.4527 155.381C82.228 156.256 83.7586 157.375 84.4291 159.353C84.6372 159.635 85.1444 159.619 85.46 159.794C85.5688 162.584 86.865 166.954 82.22 166.266C80.1825 164.807 80.1667 162.355 82.0727 160.971C81.9025 160.182 81.6468 159.297 81.9255 158.47C81.7412 157.821 81.0505 157.677 80.6 157.293C81.4368 163.45 78.4095 166.819 74.2673 168.472C74.2701 169.646 75.1091 169.985 76.1818 170.09C76.531 167.525 79.451 166.652 81.7782 168.031C81.963 168.902 81.394 169.02 80.7473 169.061C81.5938 170.299 81.6424 171.976 80.4527 172.885H86.3436C85.3036 171.988 84.9578 168.186 87.08 167.737C88.9654 167.472 89.872 168.184 90.32 169.355C91.4768 166.49 92.9862 163.977 95.4745 162.442C94.5716 160.156 93.4469 158.093 92.6764 155.675C91.8977 155.633 91.9696 156.441 91.4982 156.705C92.6656 157.255 93.1171 158.52 94.0018 159.353C94.0051 160.792 94.4949 161.212 94.1491 162.147C92.889 165.558 86.4335 162.531 90.4673 160.529C90.3624 159.64 90.6994 159.192 91.2036 158.911C88.4985 157.871 90.0122 154.439 91.7927 153.469C90.6478 149.741 87.0871 141.54 92.0873 139.496C90.4745 137.619 91.8622 136.17 92.3818 133.906C93.332 133.58 93.7713 132.744 94.0018 131.7C94.4501 131.559 94.5943 131.115 95.3273 131.259C95.1874 128.569 98.3788 129.207 99.7455 128.023ZM98.1255 133.024C97.5479 133.211 97.6317 132.621 97.8309 132.435C97.4434 132.588 96.9271 132.611 96.3582 132.582C96.2582 132.045 96.1526 131.513 96.2109 130.817C96.8262 130.238 98.1162 130.263 98.5673 130.964C98.6926 130.305 99.0852 129.913 99.7455 129.788C100.345 130.219 100.943 130.65 101.513 131.111C101.198 131.288 100.711 131.291 100.629 131.7C101.341 131.675 101.777 131.375 102.396 131.259C102.404 130.466 101.929 130.156 101.071 130.229C101.525 127.995 98.3997 128.62 97.8309 129.935C97.4639 129.811 97.042 129.742 96.5055 129.788C95.9167 130.572 96.2775 132.306 94.4436 131.847C94.1485 132.16 93.9874 133.16 94.2964 133.612C93.6469 133.993 92.4677 133.845 92.6764 135.083C93.6734 134.936 93.4864 134.832 94.4436 135.083C94.5956 134.499 94.5993 133.767 95.3273 133.759C94.951 133.743 95.0351 133.266 95.0327 132.877C96.0769 131.814 97.3213 133.894 98.1255 133.024ZM99.3036 133.318C99.9659 133.342 100.613 133.351 100.776 132.877C100.482 132.726 99.3537 132.761 99.3036 133.318ZM95.18 135.524C95.5215 135.477 95.7455 135.548 95.9164 135.671C95.9812 134.854 96.5194 134.509 96.8 133.906C96.6009 133.86 96.5187 133.697 96.2109 133.759C96.1446 134.624 95.6675 135.08 95.18 135.524ZM93.1182 139.496C92.7158 138.648 92.3396 136.099 93.56 135.377C91.2699 135.126 91.6484 139.106 93.1182 139.496ZM93.7073 139.201C93.652 138.193 93.6516 136.29 94.4436 135.671C93.018 135.538 92.9046 138.509 93.7073 139.201ZM94.0018 139.496C93.6111 139.527 92.0404 139.966 91.3509 140.525C89.0477 142.394 91.069 147.522 91.7927 150.086C93.3537 155.616 95.4887 161.129 97.9782 165.531C98.4947 166.444 99.0234 167.8 100.187 167.737C100.225 162.911 101.238 155.086 100.04 151.851C100.705 150.889 100.066 148.334 99.8927 146.85C99.5406 146.761 98.8241 147.035 98.7145 146.703C98.9761 146.195 99.7936 147.094 99.7455 146.409C99.1549 143.048 97.6895 139.198 94.0018 139.496ZM54.3855 151.557C56.0985 147.776 58.1269 143.527 59.0982 139.496C57.1571 142.842 54.0055 146.849 54.3855 151.557ZM52.9127 152.44C54.4769 150.745 53.9858 147.137 54.2382 144.055C54.3444 142.759 54.5856 141.206 54.2382 139.937C53.6506 143.774 52.8406 148.92 52.9127 152.44ZM54.5327 152.292C57.8986 148.986 60.5177 144.934 63.3691 141.114C63.346 140.94 63.3944 140.696 63.2218 140.672C59.8316 144.052 56.1586 147.15 54.5327 152.292ZM105.342 144.497C104.635 144.056 103.138 142.529 102.396 143.908C104.314 144.15 104.259 146.363 105.047 147.733C105.575 147.998 106.244 147.833 106.667 147.586C106.896 146.965 105.849 147.618 106.078 146.997C107.048 146.719 107.762 145.809 108.729 145.379C109.253 145.146 110.429 145.431 110.202 144.35C109.294 144.227 109.053 144.771 108.287 144.791C108.514 143.497 109.984 143.446 109.907 141.849C108.422 141.886 108.827 143.81 107.404 143.908C106.974 143.27 107.638 142.385 107.698 141.408C105.953 141.479 107.133 144.472 105.342 144.497ZM69.8491 145.085C70.7642 144.773 72.2736 145.055 72.5 144.055C71.9407 143.339 71.0656 142.938 70.2909 142.437C70.6944 143.585 69.7872 143.886 69.8491 145.085ZM77.36 143.32C76.6777 144.109 74.755 143.66 74.4145 144.791C75.307 145.174 75.9088 145.848 76.9182 146.115C76.7915 145.079 77.8254 143.723 77.36 143.32ZM72.7945 144.644C73.3009 144.579 73.6199 144.702 73.9727 144.791C74.0963 144.62 74.167 144.396 74.12 144.055C73.4691 144.044 72.8152 144.027 72.7945 144.644ZM67.7873 147.733C68.606 147.65 69.1196 147.873 69.1127 148.615C68.7783 148.361 68.2899 148.26 67.64 148.321C66.4004 149.513 66.0693 150.869 66.1673 152.587C66.2589 154.195 67.4502 155.64 67.64 156.999C68.0233 159.745 65.8035 163.005 68.0818 164.942C68.5141 164.415 70.4556 164.255 71.0273 164.795V165.972C70.3721 165.857 70.1435 166.168 69.5545 166.119C71.7379 168.772 76.1534 166.962 77.8018 165.236C79.5025 163.456 80.1944 160.695 80.0109 157.588C79.3885 157.197 78.9092 157.505 78.2436 157.293C78.3805 156.662 78.6078 156.033 78.2436 155.675C78.7395 155.582 78.9989 155.253 79.7164 155.381C80.3261 148.406 72.9507 142.197 67.7873 147.733ZM37.5964 148.321C37.8254 149.653 38.051 150.979 37.7436 152.145C38.9912 152.012 40.7043 153.114 39.9527 154.94C39.9767 153.419 38.9044 152.633 37.7436 152.734C37.0491 151.956 37.6607 149.875 36.4182 149.645C36.3092 152.989 37.859 154.678 39.5109 156.264C39.0563 156.288 38.6784 155.916 38.3327 156.264C38.3083 157.484 40.3838 156.981 40.8364 156.558C40.9496 156.004 40.6567 155.855 40.6891 155.381C42.3007 154.834 41.3359 151.713 42.7509 150.969C41.1527 150.278 41.433 152.675 40.1 152.734C39.6091 151.479 41.6252 149.465 39.9527 148.909C39.7813 149.819 39.4119 151.308 38.7745 151.263C39.0081 150.242 38.9195 148.275 37.5964 148.321ZM105.342 148.321C105.334 148.509 105.153 148.525 105.195 148.762C104.618 150.28 103.54 151.217 102.249 151.851C101.836 152.054 100.785 151.823 100.924 152.734C103.581 152.837 105.468 150.898 105.931 148.321H105.342ZM48.6418 156.852C48.9072 158.061 48.5901 159.401 47.7582 159.941C47.2874 159.627 47.1052 159.024 46.1382 159.206C46.285 159.991 47.7245 159.485 47.6109 160.529C47.148 159.954 45.9775 159.576 45.2545 160.088C45.3009 161.288 46.6139 161.939 47.7582 161.559C47.8738 160.904 46.9682 161.269 47.0218 160.677C47.8991 160.585 48.4589 160.81 48.3473 161.706C47.3337 163.084 44.8498 161.832 44.8127 160.382C44.9219 159.56 46.0763 159.781 45.8436 158.617C42.1459 159.126 39.3907 167.555 44.6655 168.472C44.8594 168.016 44.2289 167.656 44.6655 167.443C44.9407 169.915 48.9764 170.412 50.7036 168.914C50.8104 169.364 50.4496 169.346 50.5564 169.796C51.3356 169.904 52.4705 170.095 53.2073 169.796C53.4478 169.558 53.0758 169.181 53.2073 168.619L54.9745 167.737C55.1485 167.955 55.1019 168.394 55.5636 168.325C55.9585 168.082 56.0926 167.579 56.4473 167.296C54.8937 165.865 56.1196 163.834 56.3 162C56.0879 161.918 55.9407 161.771 55.8582 161.559C55.0616 161.401 54.981 161.958 54.2382 161.853C54.4753 161.38 54.3601 160.878 54.0909 160.529C54.3843 160.381 54.6067 160.162 54.8273 159.941C53.5492 157.914 54.0535 154.085 55.5636 152.734C54.8183 152.627 54.6915 153.137 54.0909 153.175V152.44C53.3498 152.533 53.4721 153.489 52.4709 153.322C52.4185 152.688 52.1665 152.253 51.7345 151.998C51.9775 154.321 50.6226 156.265 48.6418 156.852ZM92.6764 158.764C91.1151 157.21 90.639 156.135 92.2345 154.352C92.2035 154.187 92.0712 154.123 91.94 154.058C89.8296 154.949 89.4923 158.809 92.6764 158.764ZM78.8327 155.97C78.6632 156.144 78.666 156.49 78.6855 156.852C80.6169 156.095 81.8723 157.527 82.9564 158.47C82.6383 156.582 80.9608 156.051 78.8327 155.97ZM66.1673 160.971C66.1044 159.339 66.9708 158.635 66.9036 156.999C65.1423 156.952 63.699 161.13 66.1673 160.971ZM46.2855 158.911C46.6485 158.892 46.995 158.889 47.1691 159.059C47.1248 158.671 47.3731 158.576 47.7582 158.617C47.2445 157.947 47.7337 157.83 48.0527 157.293C47.0616 156.879 46.1804 157.749 46.2855 158.911ZM39.2164 157.735C39.0847 159.496 41.0244 162.065 41.8673 160.529C40.8037 160.202 40.0468 158.841 40.3945 157.588C39.9703 157.605 39.4305 157.507 39.2164 157.735ZM82.22 159.647C82.7309 159.324 83.702 159.46 83.84 158.764C83.1655 158.397 82.2156 158.863 82.22 159.647ZM91.2036 160.235C91.5194 160.596 92.3909 159.733 92.8236 160.235C91.6939 160.382 91.4622 161.425 91.0564 162.295C90.6986 161.934 89.9187 161.383 89.4364 162C90.2642 164.374 94.9034 162.164 93.1182 160.235C93.7905 160.217 93.1983 159.401 93.1182 159.206C92.1432 159.212 90.9415 158.992 91.2036 160.235ZM82.8091 159.794C82.7606 160.138 82.6321 160.402 82.5145 160.677C82.7898 161.342 83.7739 161.645 84.4291 161.118C83.901 160.557 84.1998 160.053 84.1345 159.5C83.516 159.422 83.3113 159.757 82.8091 159.794ZM54.3855 160.677C54.8494 160.606 54.4958 161.351 54.8273 161.412C55.3707 161.063 57.4328 160.708 57.1836 162H58.2145V160.529C57.3692 159.756 55.1498 160.065 54.3855 160.677ZM90.6145 161.412C90.6913 161.194 90.8324 161.041 90.9091 160.824C90.3288 160.643 90.1168 161.34 90.6145 161.412ZM81.4836 162.442C82.7119 162.345 83.7173 162.025 85.1655 162.147C85.2257 161.793 84.8965 161.828 85.0182 161.412C83.8459 162.675 81.7163 160.397 81.4836 162.442ZM104.016 168.472C105.096 168.537 106.576 166.987 107.109 165.825C105.885 165.652 105.675 167.712 103.869 167.443C102.54 166.024 101.778 164.04 100.924 162.147C100.831 164.713 102.633 168.39 104.016 168.472ZM56.5945 163.324C56.8536 163.726 57.4779 162.849 57.7727 163.324C57.1816 163.713 56.5032 163.871 56.3 164.354C55.1118 167.175 61.0791 167.185 60.8655 164.354C60.6273 164.101 60.2494 163.988 59.6873 164.06C59.5528 164.465 59.4173 164.869 58.9509 164.942C59.2266 163.455 58.1017 163.466 58.6564 162.442C57.8685 162.094 56.6225 162.436 56.5945 163.324ZM65.1364 162.736C64.9626 163.547 65.3903 163.757 65.4309 164.354C64.8389 164.357 64.4834 164.123 64.2527 163.765C64.2155 165.092 65.7402 165.02 66.4618 164.501C66.2969 163.734 66.2695 162.83 65.8727 162.295C65.6931 162.506 65.3101 162.518 65.1364 162.736ZM80.8945 164.207C81.6235 164.598 82.3059 164.18 82.5145 163.618C82.4776 164.047 82.7919 164.126 82.9564 164.354C83.6067 164.317 83.9351 163.958 84.1345 163.471C84.4942 163.553 84.4484 164.04 85.0182 163.913C85.4503 163.552 85.4671 163.169 85.1655 162.589C83.3363 162.723 80.9682 162.32 80.8945 164.207ZM111.38 165.236C111.203 164.185 110.942 162.44 109.613 163.03C110.65 163.318 110.32 164.972 111.38 165.236ZM91.2036 169.355C92.216 168.922 92.222 167.63 92.6764 166.854C93.5497 165.363 94.8438 164.443 96.0636 163.471C95.7854 163.455 95.9614 162.985 95.6218 163.03C93.6984 164.688 91.7235 166.295 91.2036 169.355ZM108.435 168.619C108.865 170.788 112.184 169.882 111.822 167.737C111.526 165.981 109.294 161.464 108.14 164.06C108.863 164.422 108.497 166.577 109.171 166.119C108.953 166.985 108.25 167.691 108.435 168.619ZM81.3364 164.942C82.2668 166.13 85.1329 165.838 85.3127 164.207C83.6633 164.41 82.6913 164.37 81.3364 164.942ZM106.815 165.236C107.457 165.329 107.917 165.887 107.551 166.56C108.663 166.47 107.919 164.474 107.109 164.501C106.959 164.694 106.965 165.044 106.815 165.236ZM66.7564 169.649C66.8562 168.132 67.3858 166.033 69.1127 165.678C69.6378 165.516 70.8866 166.077 70.7327 165.236C68.2041 164.143 65.5679 167.029 66.7564 169.649ZM68.2291 166.707C66.7322 168.057 68.7906 169.99 68.5236 171.267C68.3459 172.117 66.8359 172.307 67.1982 172.885C70.1844 172.935 74.8184 172.852 78.6855 172.885C79.4255 170.307 76.7114 171.44 75.0036 171.12C73.5465 170.847 72.7533 169.859 72.5 168.472C70.5 168.459 69.7431 167.206 68.2291 166.707ZM77.0655 169.208C77.9598 169.197 78.2981 169.742 78.2436 170.679C78.7899 170.82 79.367 170.93 79.5691 171.414C79.7248 172.013 79.5277 172.111 79.5691 172.885C81.2414 172.298 80.6349 170.173 80.0109 168.914C80.2645 168.53 81.1873 168.814 81.3364 168.325C79.8563 167.946 77.3453 167.363 77.0655 169.208ZM40.1 170.384C40.4079 170.469 40.5203 170.749 40.9836 170.679C41.2954 169.862 41.5922 169.031 42.4564 168.766C41.848 167.162 40.1368 169.159 40.1 170.384ZM53.5018 168.914C53.9908 169.659 54.5053 170.971 55.7109 170.532C55.6544 170.012 54.898 169.017 54.68 168.178C54.4134 168.549 53.7684 168.543 53.5018 168.914ZM66.02 172.002C66.2405 172.45 65.5751 172.971 66.1673 172.885C66.898 172.17 68.4932 171.333 67.64 169.943C65.8838 170.591 63.8642 169.455 62.4855 168.472C62.026 171.383 63.777 172.188 66.02 172.002ZM88.7 168.472C85.614 167.788 86.0084 171.94 87.3745 172.885H91.7927C91.9912 172.441 91.9912 171.711 91.7927 171.267C91.3316 170.943 90.4979 170.991 90.1727 170.532C91.0092 170.481 91.3537 170.921 92.0873 170.973C92.3188 169.761 91.2076 169.89 90.32 169.796C90.0502 170.164 90.2022 170.953 89.4364 170.826C89.5733 169.659 89.2405 168.962 88.7 168.472ZM34.9455 169.943C34.6294 171.274 35.5127 171.964 36.1236 172.885C36.297 172.908 36.5416 172.86 36.5655 173.032C37.971 172.72 40.6751 173.705 41.1309 172.444C40.656 172.085 39.5589 172.347 39.5109 171.561C39.9666 171.714 40.7492 172.093 41.2782 171.708C41.2989 170.756 40.1538 170.968 39.3636 170.826C39.0853 171.087 39.3628 171.903 38.7745 171.855C39.7682 168.69 35.4811 167.688 34.9455 169.943ZM49.82 170.237C46.8305 172.158 43.2231 166.765 41.8673 170.532C42.4988 171.338 41.7119 171.955 42.0145 172.885C44.9628 173.225 48.5415 172.936 51.7345 173.032C51.9188 171.647 53.0413 171.199 54.2382 170.826C53.6034 170.277 50.873 171.382 49.82 170.237ZM55.4164 171.414C56.0666 171.669 57.3101 171.381 57.1836 170.384C56.3854 169.981 55.9156 171.042 55.4164 171.414ZM56.1527 171.855C56.0654 172.325 56.4292 172.31 56.1527 172.591C55.6392 171.601 52.6071 171.058 52.7655 173.032H58.2145C58.4891 172.364 58.4773 170.846 57.7727 170.679C57.3707 171.208 57.0143 171.785 56.1527 171.855Z" fill="#00383E"/>
<path fill-rule="evenodd" clip-rule="evenodd" d="M95.0327 132.877C95.0351 133.266 94.951 133.743 95.3273 133.759C94.5993 133.767 94.5956 134.499 94.4436 135.083C93.4864 134.832 93.6734 134.936 92.6764 135.083C92.4677 133.845 93.6469 133.993 94.2964 133.612C93.9874 133.16 94.1485 132.16 94.4436 131.847C96.2775 132.306 95.9166 130.572 96.5054 129.788C97.042 129.742 97.4639 129.811 97.8309 129.935C98.3997 128.62 101.525 127.995 101.071 130.229C101.929 130.156 102.404 130.466 102.396 131.259C101.777 131.375 101.341 131.675 100.629 131.7C100.711 131.291 101.198 131.288 101.513 131.111C100.943 130.65 100.345 130.219 99.7454 129.788C99.0852 129.913 98.6926 130.305 98.5673 130.964C98.1162 130.263 96.8262 130.238 96.2109 130.817C96.1526 131.513 96.2582 132.045 96.3582 132.582C96.9271 132.611 97.4434 132.588 97.8309 132.435C97.6316 132.621 97.5478 133.211 98.1254 133.024C97.3213 133.894 96.0769 131.814 95.0327 132.877Z" fill="#82FF79"/>
<path fill-rule="evenodd" clip-rule="evenodd" d="M59.0982 139.496C58.1269 143.527 56.0985 147.776 54.3855 151.557C54.0055 146.849 57.1571 142.842 59.0982 139.496Z" fill="#82FF79"/>
<path fill-rule="evenodd" clip-rule="evenodd" d="M71.6164 149.204C71.5713 148.905 72.0418 149.234 72.0582 149.351C72.2367 149.396 72.566 148.926 72.2055 148.909C72.3502 148.345 72.9428 149.613 72.9418 148.762C73.5032 149.646 74.4689 151.283 73.6782 152.587C72.8925 152.67 72.3888 152.245 71.7636 152.587C71.5558 151.765 71.6943 150.597 71.0273 150.233C71.4212 150.112 71.5787 150.163 71.3218 149.498C71.5859 149.479 71.6324 149.678 71.9109 149.645C71.7843 149.526 71.824 149.242 71.6164 149.204ZM72.0582 152.145H72.6473C72.5062 151.514 72.7515 151.269 73.3836 151.41C73.5589 150.794 72.7629 151.147 72.6473 150.822C72.6221 150.569 73.4825 150.243 72.7945 150.233C72.1657 150.488 71.933 151.138 72.0582 152.145Z" fill="black"/>
<path fill-rule="evenodd" clip-rule="evenodd" d="M93.8545 152.881C95.2259 152.935 97.1087 152.336 97.5364 150.969C97.5015 150.513 97.1265 150.397 96.9473 150.086C97.2909 149.947 98.3771 150.766 99.1564 150.233C99.1344 150.849 98.496 150.848 98.1255 151.116C98.2565 153.207 97.5144 155.048 95.6218 154.646C95.472 154.109 95.2566 153.638 95.0327 153.175C94.4701 153.246 94.0931 153.134 93.8545 152.881ZM96.0636 153.616C96.0968 153.894 95.8977 153.941 95.9164 154.205C96.4766 154.762 97.7501 153.49 96.9473 153.175C96.7499 153.818 96.663 153.991 96.0636 153.616Z" fill="black"/>
<path fill-rule="evenodd" clip-rule="evenodd" d="M74.8564 155.234C74.9443 154.194 75.9033 154.025 76.7709 153.763C76.2477 154.175 75.3466 154.985 75.74 155.823C75.5706 156.077 75.0449 155.447 74.8564 155.234Z" fill="black"/>
<path fill-rule="evenodd" clip-rule="evenodd" d="M99.8927 158.323C98.5503 158.649 96.7779 158.546 95.9164 159.353C96.1196 158.561 98.4347 157.866 99.8927 158.323Z" fill="black"/>
<path fill-rule="evenodd" clip-rule="evenodd" d="M76.0345 159.353C76.2708 159.222 77.0979 159.756 77.5073 159.941C77.6822 161.096 76.7051 161.101 76.6236 162C76.3954 161.249 76.8637 159.819 76.0345 159.353Z" fill="black"/>
<path fill-rule="evenodd" clip-rule="evenodd" d="M70.7327 161.265C71.61 161.173 72.0037 161.565 72.6473 161.706C71.4832 161.917 70.5033 162.311 69.9964 163.177C69.8506 162.733 70.4662 161.787 70.7327 161.265ZM70.7327 161.853C70.981 162.103 71.3946 161.768 71.6164 161.559C71.3027 161.243 70.8137 161.505 70.7327 161.853Z" fill="black"/>
<path fill-rule="evenodd" clip-rule="evenodd" d="M49.82 161.706C49.4719 162.763 50.6035 163.873 51.5873 163.618C51.4413 164.324 49.9016 164.115 49.5255 163.765C48.4231 164.534 46.3344 166.079 44.8127 164.648C44.8199 163.268 44.4032 162.311 43.7818 161.559C45.0061 162.563 46.8525 163.662 49.0836 163.177C49.281 162.639 49.4091 162.031 49.82 161.706ZM48.2 163.765C46.8495 163.84 45.9681 163.445 45.1073 163.03C44.9481 164.592 47.5815 164.672 48.2 163.765Z" fill="black"/>
<path fill-rule="evenodd" clip-rule="evenodd" d="M74.8564 163.913C75.1939 164.36 75.9058 164.433 75.74 165.383C75.4415 165.821 74.4733 165.589 74.2673 166.119C74.1318 165.636 75.1701 165.063 74.8564 163.913Z" fill="black"/>
<path fill-rule="evenodd" clip-rule="evenodd" d="M99.7455 146.409C99.7936 147.094 98.9761 146.195 98.7145 146.703C98.8241 147.035 99.5406 146.761 99.8927 146.85C100.066 148.334 100.705 150.889 100.04 151.851C101.238 155.086 100.225 162.911 100.187 167.737C99.0234 167.8 98.4947 166.444 97.9782 165.531C95.4887 161.129 93.3537 155.616 91.7927 150.086C91.069 147.522 89.0477 142.394 91.3509 140.525C92.0404 139.966 93.6111 139.527 94.0018 139.496C97.6895 139.198 99.1549 143.048 99.7455 146.409ZM91.2036 145.085C92.4192 143.504 95.0665 143.354 97.2418 142.732C94.6483 142.837 91.7544 143.429 91.2036 145.085ZM95.18 144.938C95.4884 144.51 95.6659 143.952 96.3582 143.908C96.8194 143.938 96.9602 144.288 97.2418 144.497C97.6777 142.795 94.6587 143.76 95.18 144.938ZM91.7927 145.526C91.9926 144.775 93.0124 144.866 93.4127 145.379C93.6734 143.767 91.1904 144.738 91.7927 145.526ZM96.0636 145.085C95.3657 145.717 95.3092 146.712 95.4745 147.88C96.4583 148.051 97.2409 147.985 98.1255 147.733C97.8736 146.416 97.5452 145.173 96.0636 145.085ZM92.8236 145.968C91.8089 145.96 91.6178 147.538 91.94 148.909C92.4429 148.866 92.8233 149.257 93.56 149.351C94.4937 148.355 93.9606 145.976 92.8236 145.968ZM93.4127 150.674C94.1702 151.882 96.6242 151.108 96.2109 149.351C94.7868 149.301 93.4731 149.362 93.4127 150.674ZM95.0327 153.175C95.2566 153.638 95.472 154.109 95.6218 154.646C97.5144 155.048 98.2565 153.207 98.1255 151.116C98.496 150.848 99.1344 150.849 99.1564 150.233C98.3771 150.766 97.2909 149.947 96.9473 150.086C97.1265 150.397 97.5015 150.513 97.5364 150.969C97.1087 152.336 95.226 152.935 93.8546 152.881C94.0931 153.134 94.4701 153.246 95.0327 153.175ZM98.2727 153.616C97.9928 153.906 99.454 153.704 99.8927 153.763C99.8942 153.196 98.5157 153.481 98.2727 153.616ZM93.7073 154.94C94.359 154.855 94.8513 154.612 95.18 154.205C94.4775 154.238 94.1182 154.615 93.7073 154.94ZM95.18 154.94C95.0226 155.49 95.5457 155.359 95.4745 155.823C96.8202 156.127 98.2038 155.099 97.5364 154.352C97.1225 155.147 95.9605 155.727 95.18 154.94ZM95.9164 159.353C96.7779 158.546 98.5503 158.65 99.8927 158.323C98.4347 157.866 96.1196 158.561 95.9164 159.353ZM97.3891 163.177C98.158 162.674 99.4916 163.38 99.7455 162.589C98.6718 162.498 97.8692 162.677 97.3891 163.177Z" fill="#F97124"/>
<path fill-rule="evenodd" clip-rule="evenodd" d="M75.74 149.351C76.2154 149.734 76.8326 149.114 77.36 149.498C77.7255 150.146 77.3307 150.679 77.2127 151.263C76.9359 150.411 76.2702 149.949 75.74 149.351Z" fill="black"/>
</svg>
